<?xml version="1.0" encoding="utf-8" standalone="no"?>
<!DOCTYPE svg PUBLIC "-//W3C//DTD SVG 1.1//EN"
  "http://www.w3.org/Graphics/SVG/1.1/DTD/svg11.dtd">
<svg width="800px" height="600px" version="1.1" xmlns="http://www.w3.org/2000/svg">
<desc>Figure 1</desc>
<script>
function tooltip(x,y,string,size,face) {
    var txtElem = document.createElementNS("http://www.w3.org/2000/svg", "text");
    txtElem.setAttributeNS(null,"id","tooltip");
    txtElem.setAttributeNS(null,"x",x);
    txtElem.setAttributeNS(null,"y",y);
    txtElem.setAttributeNS(null,"font-size",size);
    txtElem.setAttributeNS(null,"font-family",face);

    txtElem.appendChild(document.createTextNode(string))
    document.documentElement.appendChild(txtElem);
}
function remove_tooltip() {
    var txtElem = document.getElementById("tooltip");
    document.documentElement.removeChild(txtElem);
}
</script>
<rect x="80" y="60" width="640" height="480" fill="#c8c8c8" fill-opacity="1.000000" stroke="#c8c8c8" stroke-opacity="1.000000" stroke-width="3.000000">
</rect>
<text x="187.526" y="545" font-family="Roboto" font-size="18.000000" text-anchor="middle" alignment-baseline="hanging" fill="#000000" fill-opacity="1.000000">-4.2</text>
<text x="295.206" y="545" font-family="Roboto" font-size="18.000000" text-anchor="middle" alignment-baseline="hanging" fill="#000000" fill-opacity="1.000000">-2.1</text>
<text x="402.886" y="545" font-family="Roboto" font-size="18.000000" text-anchor="middle" alignment-baseline="hanging" fill="#000000" fill-opacity="1.000000">0</text>
<text x="510.566" y="545" font-family="Roboto" font-size="18.000000" text-anchor="middle" alignment-baseline="hanging" fill="#000000" fill-opacity="1.000000">2.1</text>
<text x="618.246" y="545" font-family="Roboto" font-size="18.000000" text-anchor="middle" alignment-baseline="hanging" fill="#000000" fill-opacity="1.000000">4.2</text>
<text x="75" y="529.714" font-family="Roboto" font-size="18.000000" text-anchor="end" alignment-baseline="middle" fill="#000000" fill-opacity="1.000000">0</text>
<text x="75" y="437.857" font-family="Roboto" font-size="18.000000" text-anchor="end" alignment-baseline="middle" fill="#000000" fill-opacity="1.000000">0.2</text>
<text x="75" y="345.999" font-family="Roboto" font-size="18.000000" text-anchor="end" alignment-baseline="middle" fill="#000000" fill-opacity="1.000000">0.4</text>
<text x="75" y="254.142" font-family="Roboto" font-size="18.000000" text-anchor="end" alignment-baseline="middle" fill="#000000" fill-opacity="1.000000">0.6</text>
<text x="75" y="162.285" font-family="Roboto" font-size="18.000000" text-anchor="end" alignment-baseline="middle" fill="#000000" fill-opacity="1.000000">0.8</text>
<text x="75" y="70.4273" font-family="Roboto" font-size="18.000000" text-anchor="end" alignment-baseline="middle" fill="#000000" fill-opacity="1.000000">1</text>
<path d=" M 187.526169 545.000000 L 187.526169 540.000000 M 295.206177 545.000000 L 295.206177 540.000000 M 402.886200 545.000000 L 402.886200 540.000000 M 510.566223 545.000000 L 510.566223 540.000000 M 618.246216 545.000000 L 618.246216 540.000000 M 75.000000 529.713867 L 80.000000 529.713867 M 75.000000 437.856567 L 80.000000 437.856567 M 75.000000 345.999237 L 80.000000 345.999237 M 75.000000 254.141907 L 80.000000 254.141907 M 75.000000 162.284607 L 80.000000 162.284607 M 75.000000 70.427307 L 80.000000 70.427307" stroke="#000000" stroke-opacity="1.000000" stroke-width="1.500000" fill-opacity="0"/>
<path d=" M 187.526169 60.000000 L 187.526169 540.000000 M 295.206177 60.000000 L 295.206177 540.000000 M 402.886200 60.000000 L 402.886200 540.000000 M 510.566223 60.000000 L 510.566223 540.000000 M 618.246216 60.000000 L 618.246216 540.000000 M 80.000000 529.713867 L 720.000000 529.713867 M 80.000000 437.856567 L 720.000000 437.856567 M 80.000000 345.999237 L 720.000000 345.999237 M 80.000000 254.141907 L 720.000000 254.141907 M 80.000000 162.284607 L 720.000000 162.284607 M 80.000000 70.427307 L 720.000000 70.427307" stroke="#ffffff" stroke-opacity="1.000000" stroke-width="1.500000" fill-opacity="0"/>
<text x="400" y="564" font-family="Roboto" font-size="18.000000" text-anchor="middle" alignment-baseline="hanging" fill="#000000" fill-opacity="1.000000">x</text>
<text x="0" y="0" font-family="Roboto" font-size="18.000000" text-anchor="middle" alignment-baseline="baseline" fill="#000000" fill-opacity="1.000000" transform="matrix(-4.37114e-08 -1 1 -4.37114e-08 48 300)">y</text>
<path d=" M 95.229004 528.578247 L 101.382141 528.433838 L 107.535278 528.271179 L 113.688446 528.087891 L 119.841583 527.881409 L 125.994720 527.648804 L 132.147888 527.386841 L 138.301025 527.091797 L 144.454163 526.759705 L 150.607300 526.385742 L 156.760437 525.964905 L 162.913605 525.491333 L 169.066742 524.958557 L 175.219879 524.359314 L 181.373016 523.685608 L 187.526169 522.928345 L 193.679321 522.077637 L 199.832458 521.122192 L 205.985596 520.049805 L 212.138733 518.846924 L 218.291885 517.498230 L 224.445023 515.987305 L 230.598175 514.296021 L 236.751312 512.404297 L 242.904465 510.290741 L 249.057602 507.931824 L 255.210739 505.302277 L 261.363892 502.375153 L 267.517029 499.121704 L 273.670166 495.511749 L 279.823303 491.513794 L 285.976440 487.095306 L 292.129578 482.223419 L 298.282776 476.865265 L 304.435913 470.988770 L 310.589050 464.563599 L 316.742188 457.562042 L 322.895325 449.960297 L 329.048462 441.739655 L 335.201599 432.887878 L 341.354767 423.400421 L 347.507904 413.281952 L 353.661041 402.547424 L 359.814178 391.223022 L 365.967346 379.346649 L 372.120483 366.968567 L 378.273621 354.150635 L 384.426758 340.965668 L 390.579926 327.496246 L 396.733063 313.832672 L 402.886200 300.070618 L 409.039337 286.308533 L 415.192474 272.644958 L 421.345642 259.175507 L 427.498779 245.990570 L 433.651917 233.172623 L 439.805054 220.794540 L 445.958221 208.918182 L 452.111359 197.593735 L 458.264496 186.859222 L 464.417633 176.740814 L 470.570801 167.253326 L 476.723938 158.401520 L 482.877075 150.180878 L 489.030212 142.579132 L 495.183380 135.577576 L 501.336487 129.152405 L 507.489655 123.275940 L 513.642761 117.917740 L 519.795959 113.045860 L 525.949036 108.627441 L 532.102234 104.629448 L 538.255371 101.019508 L 544.408508 97.766052 L 550.561646 94.838890 L 556.714783 92.209381 L 562.867920 89.850418 L 569.021057 87.736893 L 575.174194 85.845230 L 581.327332 84.153854 L 587.480469 82.642975 L 593.633728 81.294281 L 599.786804 80.091293 L 605.940002 79.018959 L 612.093079 78.063583 L 618.246277 77.212830 L 624.399353 76.455620 L 630.552551 75.781906 L 636.705688 75.182648 L 642.858826 74.649864 L 649.011963 74.176270 L 655.165100 73.755447 L 661.318237 73.381500 L 667.471375 73.049355 L 673.624573 72.754326 L 679.777649 72.492393 L 685.930847 72.259781 L 692.083984 72.053345 L 698.237122 71.870010 L 704.390259 71.707321" stroke="#ff0000" stroke-opacity="0.784314" stroke-width="10.000000" fill-opacity="0"/>
</svg>
