<?xml version="1.0" encoding="utf-8" standalone="no"?>
<!DOCTYPE svg PUBLIC "-//W3C//DTD SVG 1.1//EN"
  "http://www.w3.org/Graphics/SVG/1.1/DTD/svg11.dtd">
<svg width="800px" height="600px" version="1.1" xmlns="http://www.w3.org/2000/svg">
<desc>Figure 1</desc>
<script>
function tooltip(x,y,string,size,face) {
    var txtElem = document.createElementNS("http://www.w3.org/2000/svg", "text");
    txtElem.setAttributeNS(null,"id","tooltip");
    txtElem.setAttributeNS(null,"x",x);
    txtElem.setAttributeNS(null,"y",y);
    txtElem.setAttributeNS(null,"font-size",size);
    txtElem.setAttributeNS(null,"font-family",face);

    txtElem.appendChild(document.createTextNode(string))
    document.documentElement.appendChild(txtElem);
}
function remove_tooltip() {
    var txtElem = document.getElementById("tooltip");
    document.documentElement.removeChild(txtElem);
}
</script>
<rect x="80" y="60" width="640" height="480" fill="#c8c8c8" fill-opacity="1.000000" stroke="#c8c8c8" stroke-opacity="1.000000" stroke-width="3.000000">
</rect>
<text x="95.229" y="545" font-family="Roboto" font-size="18.000000" text-anchor="middle" alignment-baseline="hanging" fill="#000000" fill-opacity="1.000000">0</text>
<text x="203.007" y="545" font-family="Roboto" font-size="18.000000" text-anchor="middle" alignment-baseline="hanging" fill="#000000" fill-opacity="1.000000">1.1</text>
<text x="310.785" y="545" font-family="Roboto" font-size="18.000000" text-anchor="middle" alignment-baseline="hanging" fill="#000000" fill-opacity="1.000000">2.2</text>
<text x="418.563" y="545" font-family="Roboto" font-size="18.000000" text-anchor="middle" alignment-baseline="hanging" fill="#000000" fill-opacity="1.000000">3.3</text>
<text x="526.341" y="545" font-family="Roboto" font-size="18.000000" text-anchor="middle" alignment-baseline="hanging" fill="#000000" fill-opacity="1.000000">4.4</text>
<text x="634.119" y="545" font-family="Roboto" font-size="18.000000" text-anchor="middle" alignment-baseline="hanging" fill="#000000" fill-opacity="1.000000">5.5</text>
<text x="75" y="482.892" font-family="Roboto" font-size="18.000000" text-anchor="end" alignment-baseline="middle" fill="#000000" fill-opacity="1.000000">-0.8</text>
<text x="75" y="391.517" font-family="Roboto" font-size="18.000000" text-anchor="end" alignment-baseline="middle" fill="#000000" fill-opacity="1.000000">-0.4</text>
<text x="75" y="300.143" font-family="Roboto" font-size="18.000000" text-anchor="end" alignment-baseline="middle" fill="#000000" fill-opacity="1.000000">0</text>
<text x="75" y="208.769" font-family="Roboto" font-size="18.000000" text-anchor="end" alignment-baseline="middle" fill="#000000" fill-opacity="1.000000">0.4</text>
<text x="75" y="117.394" font-family="Roboto" font-size="18.000000" text-anchor="end" alignment-baseline="middle" fill="#000000" fill-opacity="1.000000">0.8</text>
<path d=" M 95.229019 545.000000 L 95.229019 540.000000 M 203.007019 545.000000 L 203.007019 540.000000 M 310.785004 545.000000 L 310.785004 540.000000 M 418.562988 545.000000 L 418.562988 540.000000 M 526.341003 545.000000 L 526.341003 540.000000 M 634.118958 545.000000 L 634.118958 540.000000 M 75.000000 482.891754 L 80.000000 482.891754 M 75.000000 391.517395 L 80.000000 391.517395 M 75.000000 300.143066 L 80.000000 300.143066 M 75.000000 208.768707 L 80.000000 208.768707 M 75.000000 117.394379 L 80.000000 117.394379" stroke="#000000" stroke-opacity="1.000000" stroke-width="1.500000" fill-opacity="0"/>
<path d=" M 95.229019 60.000000 L 95.229019 540.000000 M 203.007019 60.000000 L 203.007019 540.000000 M 310.785004 60.000000 L 310.785004 540.000000 M 418.562988 60.000000 L 418.562988 540.000000 M 526.341003 60.000000 L 526.341003 540.000000 M 634.118958 60.000000 L 634.118958 540.000000 M 80.000000 482.891754 L 720.000000 482.891754 M 80.000000 391.517395 L 720.000000 391.517395 M 80.000000 300.143066 L 720.000000 300.143066 M 80.000000 208.768707 L 720.000000 208.768707 M 80.000000 117.394379 L 720.000000 117.394379" stroke="#ffffff" stroke-opacity="1.000000" stroke-width="1.500000" fill-opacity="0"/>
<text x="400" y="564" font-family="Roboto" font-size="18.000000" text-anchor="middle" alignment-baseline="hanging" fill="#000000" fill-opacity="1.000000">x</text>
<text x="0" y="0" font-family="Roboto" font-size="18.000000" text-anchor="middle" alignment-baseline="baseline" fill="#000000" fill-opacity="1.000000" transform="matrix(-4.37114e-08 -1 1 -4.37114e-08 48 300)">y</text>
<path d=" M 95.229019 300.143066 L 101.382156 285.806732 L 107.535309 271.526917 L 113.688446 257.359924 L 119.841591 243.361572 L 125.994736 229.587112 L 132.147873 216.090820 L 138.301025 202.925919 L 144.454163 190.144257 L 150.607315 177.796326 L 156.760452 165.930725 L 162.913605 154.594269 L 169.066742 143.831635 L 175.219879 133.685272 L 181.373047 124.195175 L 187.526184 115.398758 L 193.679321 107.330704 L 199.832458 100.022827 L 205.985611 93.503937 L 212.138763 87.799713 L 218.291901 82.932678 L 224.445038 78.921997 L 230.598175 75.783508 L 236.751328 73.529541 L 242.904465 72.169022 L 249.057617 71.707291 L 255.210754 72.146187 L 261.363892 73.483971 L 267.517029 75.715370 L 273.670197 78.831573 L 279.823334 82.820320 L 285.976501 87.665871 L 292.129639 93.349121 L 298.282776 99.847656 L 304.435913 107.135864 L 310.589050 115.185005 L 316.742188 123.963394 L 322.895325 133.436325 L 329.048492 143.566559 L 335.201630 154.314056 L 341.354767 165.636505 L 347.507904 177.489243 L 353.661072 189.825592 L 359.814209 202.596832 L 365.967346 215.752640 L 372.120483 229.241180 L 378.273651 243.009277 L 384.426788 257.002594 L 390.579926 271.165985 L 396.733063 285.443634 L 402.886200 299.779297 L 409.039337 314.116302 L 415.192474 328.398254 L 421.345612 342.568787 L 427.498810 356.572174 L 433.651947 370.352966 L 439.805084 383.856964 L 445.958252 397.030945 L 452.111389 409.822937 L 458.264526 422.182495 L 464.417664 434.060883 L 470.570801 445.411316 L 476.723969 456.189056 L 482.877106 466.351532 L 489.030243 475.858795 L 495.183380 484.673187 L 501.336517 492.760132 L 507.489655 500.087616 L 513.642822 506.626862 L 519.795898 512.352051 L 525.949097 517.240540 L 532.102173 521.273193 L 538.255371 524.433960 L 544.408569 526.710449 L 550.561646 528.093750 L 556.714844 528.578247 L 562.867981 528.162231 L 569.021118 526.847168 L 575.174255 524.638306 L 581.327393 521.544434 L 587.480530 517.577637 L 593.633667 512.753662 L 599.786804 507.091339 L 605.939941 500.613190 L 612.093140 493.344635 L 618.246216 485.314453 L 624.399414 476.554108 L 630.552612 467.098236 L 636.705688 456.984314 L 642.858826 446.251892 L 649.011963 434.943573 L 655.165100 423.103638 L 661.318237 410.778961 L 667.471375 398.018158 L 673.624512 384.871460 L 679.777710 371.390625 L 685.930786 357.629089 L 692.083984 343.640686 L 698.237061 329.481049 L 704.390259 315.205505" stroke="#1f77b4" stroke-opacity="0.784314" stroke-width="3.000000" fill-opacity="0"/>
</svg>
